<mxfile host="app.diagrams.net" modified="2024-05-31T13:10:55.484Z" agent="Mozilla/5.0 (X11; Linux x86_64; rv:126.0) Gecko/20100101 Firefox/126.0" etag="lDCU-4V7_wb5K0wHZ_2j" version="24.4.13" type="github">
  <diagram name="Page-1" id="ag5bWKGfYGbEhARfmbbc">
    <mxGraphModel dx="1363" dy="960" grid="0" gridSize="10" guides="1" tooltips="1" connect="1" arrows="1" fold="1" page="0" pageScale="1" pageWidth="850" pageHeight="1100" math="0" shadow="0">
      <root>
        <mxCell id="0" />
        <mxCell id="1" parent="0" />
        <mxCell id="oBzKwtTu6Xq8htBzXSEk-1" value=":View Login" style="rounded=0;whiteSpace=wrap;html=1;fillColor=#f8cecc;strokeColor=#b85450;" vertex="1" parent="1">
          <mxGeometry x="-203" y="-265" width="120" height="60" as="geometry" />
        </mxCell>
        <mxCell id="oBzKwtTu6Xq8htBzXSEk-2" value=":Login Controller" style="rounded=0;whiteSpace=wrap;html=1;fillColor=#d5e8d4;strokeColor=#82b366;" vertex="1" parent="1">
          <mxGeometry x="-4" y="-265" width="120" height="60" as="geometry" />
        </mxCell>
        <mxCell id="oBzKwtTu6Xq8htBzXSEk-3" value="" style="endArrow=none;dashed=1;html=1;dashPattern=1 3;strokeWidth=2;rounded=0;exitX=0.5;exitY=1;exitDx=0;exitDy=0;" edge="1" parent="1" source="oBzKwtTu6Xq8htBzXSEk-1">
          <mxGeometry width="50" height="50" relative="1" as="geometry">
            <mxPoint x="-151" y="-157" as="sourcePoint" />
            <mxPoint x="-143" y="680" as="targetPoint" />
          </mxGeometry>
        </mxCell>
        <mxCell id="oBzKwtTu6Xq8htBzXSEk-4" value="" style="endArrow=none;dashed=1;html=1;dashPattern=1 3;strokeWidth=2;rounded=0;" edge="1" parent="1" source="oBzKwtTu6Xq8htBzXSEk-2">
          <mxGeometry width="50" height="50" relative="1" as="geometry">
            <mxPoint x="55.5" y="-201" as="sourcePoint" />
            <mxPoint x="55.5" y="684" as="targetPoint" />
          </mxGeometry>
        </mxCell>
        <mxCell id="oBzKwtTu6Xq8htBzXSEk-5" value="" style="rounded=0;whiteSpace=wrap;html=1;rotation=90;" vertex="1" parent="1">
          <mxGeometry x="-256" y="-61.5" width="226" height="11" as="geometry" />
        </mxCell>
        <mxCell id="oBzKwtTu6Xq8htBzXSEk-6" value="" style="rounded=0;whiteSpace=wrap;html=1;rotation=90;" vertex="1" parent="1">
          <mxGeometry x="-39.25" y="-64" width="190.5" height="11" as="geometry" />
        </mxCell>
      </root>
    </mxGraphModel>
  </diagram>
</mxfile>
